<?xml version="1.0" encoding="UTF-8"?>
<svg width="242px" height="261px" viewBox="0 0 242 261" version="1.1" xmlns="http://www.w3.org/2000/svg" xmlns:xlink="http://www.w3.org/1999/xlink">
    <!-- Generator: Sketch 43.2 (39069) - http://www.bohemiancoding.com/sketch -->
    <title>Group 9</title>
    <desc>Created with Sketch.</desc>
    <defs></defs>
    <g id="Page-1" stroke="none" stroke-width="1" fill="none" fill-rule="evenodd">
        <g id="Group-9" transform="translate(2.000000, -2.000000)" fill="#FFFFFF">
            <path d="M209.350519,75.3474611 L167.186155,59.8514471 L136.436219,80.7520597 L136.296061,113.423867 L126.46585,133.604574 L131.63048,112.706085 L130.369053,88.4798924 L111.437031,74.4109472 L83.7005037,72.8224836 L65.6795121,63.7928753 L57.1532004,50 L47.5438454,59.9703695 L33.6044407,69.2229573 L27,80.9941517 L28.1998421,87.6028396 L32.7634894,90.6056304 L49.1025784,90.8859475 L58.3509189,84.3600805 L60.6316808,75.9505676 L61.4429015,86.7725064 L51.4428014,95.2414805 L30.9626644,95.8934301 L27,102.374701 L40.8119879,103.559678 L55.7091427,114.870048 L69.882145,115.691887 L94.2081476,98.8049054 L111.619662,106.003958 L95.2317297,102.497871 L75.2294059,120.915978 L84.6603774,141.65732 L72.7660133,141.65732 L65.3184977,150.306801 L120.935958,150.306801 L135.833113,143.341346 L168.927519,100.153401 L196.496281,101.905382 L202.440278,111.544468 L196.135266,105.498538 L172.227616,105.719394 L159.974361,132.869804 L193.372444,147.760587 L218,122.557532 L209.350519,75.3474611 Z M43.2987403,81.2829633 L40.0177561,81.2829633 L37.9727154,78.7197607 L38.7032388,75.5215975 L41.6614336,74.0966522 L44.6153812,75.5215975 L45.3459045,78.7197607 L43.2987403,81.2829633 Z" id="Shape" fill-rule="nonzero"></path>
            <text id="Design-Co-operative" font-family="Baskerville-Italic, Baskerville" font-size="36" font-style="italic" font-weight="normal">
                <tspan x="0" y="243">Design Co-operative</tspan>
            </text>
            <text id="Spofford" font-family="Avenir-Book, Avenir" font-size="36" font-weight="normal">
                <tspan x="49" y="196">Spofford</tspan>
            </text>
            <text id="American-Atlantic" font-family="Baskerville-Italic, Baskerville" font-size="36" font-style="italic" font-weight="normal">
                <tspan x="6" y="32">American-Atlantic</tspan>
            </text>
        </g>
    </g>
</svg>